#!OML:ASF F:\twosubjects\two\Thursday\Session 1\Rory.ASF
:FULLY-SPECIFIED
:DEGREES
400
root 11.4695 18.2776 8.62216 -146.721 -82.0302 144.956
lowerback 1.25186 -2.75562 -2.9843
upperback -1.76969 -3.80261 -1.29401
thorax -2.41374 -1.86566 0.462651
lowerneck 1.89347 -14.3116 -15.2136
upperneck 13.8437 -21.4161 11.5209
head 6.79125 -10.8567 4.3927
rclavicle 2.21893e-014 3.27995e-015
rhumerus 24.5135 -41.3953 -12.5261
rradius 65.7652
rwrist -6.34029
rhand -38.3113 26.1502
rfingers 7.12502
rthumb -11.3395 -3.52324
lclavicle 2.21893e-014 3.27995e-015
lhumerus 1.03096 25.8183 -7.47708
lradius 76.3618
lwrist 11.0938
lhand -16.1535 41.4038
lfingers 7.12502
lthumb 10.0521 71.1437
rfemur -5.91038 23.4014 -3.29181
rtibia 35.0993
rfoot 1.20863 -7.23687
rtoes -31.8901
lfemur -0.895409 -16.972 -2.16596
ltibia 29.013
lfoot 7.94675 3.58981
ltoes -20.2727
401
root 11.4305 18.5197 8.61815 -147.365 -82.0182 146.262
lowerback 0.420282 -2.82434 -2.87514
upperback -1.82077 -3.85521 -1.1127
thorax -1.99205 -1.89808 0.544389
lowerneck 1.41757 -14.7139 -15.1308
upperneck 14.1972 -21.9519 11.4033
head 7.03768 -11.0909 4.22031
rclavicle 5.06404e-014 1.55052e-014
rhumerus 22.8742 -41.3553 -12.3509
rradius 64.2011
rwrist -5.85893
rhand -37.8972 25.9327
rfingers 7.12502
rthumb -10.9401 -3.76231
lclavicle 5.06404e-014 1.55052e-014
lhumerus -1.59592 24.6117 -7.5838
lradius 75.0207
lwrist 11.3547
lhand -15.7028 41.2583
lfingers 7.12502
lthumb 10.4868 70.9767
rfemur -6.26006 23.5122 -3.15461
rtibia 33.4417
rfoot 4.61622 -7.48797
rtoes -28.2729
lfemur -1.20024 -17.5851 -2.3807
ltibia 27.4479
lfoot 11.5986 4.92047
ltoes -17.2396
402
root 11.3983 18.7493 8.6186 -147.361 -81.8887 146.873
lowerback -0.291822 -2.76602 -2.7279
upperback -1.85414 -3.75215 -1.15516
thorax -1.64185 -1.85521 0.380282
lowerneck 1.17979 -15.1402 -14.483
upperneck 14.1407 -22.4988 11.2383
head 7.04069 -11.3197 3.99431
rclavicle 4.81432e-014 9.93923e-015
rhumerus 20.4794 -41.2696 -11.7525
rradius 62.7724
rwrist -5.6715
rhand -37.6174 25.2352
rfingers 7.12502
rthumb -10.6702 -4.47389
lclavicle 4.81432e-014 9.93923e-015
lhumerus -3.6424 23.5623 -7.27303
lradius 73.6603
lwrist 11.3663
lhand -15.4075 41.1868
lfingers 7.12502
lthumb 10.7717 70.8906
rfemur -6.68058 23.6084 -3.22077
rtibia 31.9394
rfoot 7.68433 -8.08568
rtoes -24.2831
lfemur -1.52342 -18.1978 -2.7425
ltibia 26.0389
lfoot 14.2707 6.82411
ltoes -15.6681
403
root 11.3618 18.9637 8.61482 -148.233 -81.7175 148.356
lowerback -1.01075 -2.679 -2.47401
upperback -1.93658 -3.61302 -1.12548
thorax -1.34044 -1.79353 0.233807
lowerneck 1.36356 -15.3887 -14.2077
upperneck 13.7173 -22.8608 11.459
head 6.91651 -11.4807 4.00436
rclavicle -4.58944e-014 -1.78906e-015
rhumerus 18.0884 -40.7485 -10.8703
rradius 61.0077
rwrist -6.29226
rhand -38.1599 25.4208
rfingers 7.12502
rthumb -11.1935 -4.2606
lclavicle -4.58944e-014 -1.78906e-015
lhumerus -5.60606 22.6463 -6.62484
lradius 72.1136
lwrist 11.1155
lhand -15.0385 41.0365
lfingers 7.12502
lthumb 11.1276 70.7215
rfemur -7.1334 24.275 -3.12015
rtibia 30.6518
rfoot 10.1512 -9.47159
rtoes -18.9181
lfemur -1.82586 -18.7576 -3.06059
ltibia 24.9351
lfoot 16.1657 8.46201
ltoes -3.5417
404
root 11.3297 19.1661 8.60837 -149.477 -81.536 150.28
lowerback -1.77573 -2.62515 -2.26472
upperback -2.06105 -3.52096 -1.00593
thorax -1.0467 -1.75326 0.204509
lowerneck 1.50733 -15.43 -14.3507
upperneck 13.4862 -23.033 12.0861
head 6.93454 -11.5512 4.20263
rclavicle 3.02774e-014 0
rhumerus 16.0646 -40.2758 -10.4504
rradius 59.2244
rwrist -6.87022
rhand -38.9193 26.9074
rfingers 7.12502
rthumb -11.9258 -2.73296
lclavicle 3.02774e-014 0
lhumerus -7.67376 21.5407 -6.20124
lradius 70.3008
lwrist 11.0158
lhand -14.9182 40.6823
lfingers 7.12502
lthumb 11.2437 70.361
rfemur -7.79041 25.011 -2.97237
rtibia 29.6491
rfoot 12.0815 -10.5972
rtoes -15.0644
lfemur -2.33109 -19.0006 -3.30563
ltibia 24.1937
lfoot 17.4107 9.07376
ltoes 1.21453
